<?xml version="1.0" encoding="iso-8859-1"?>
<!-- Uploaded to: SVG Repo, www.svgrepo.com, Generator: SVG Repo Mixer Tools -->
<svg fill="#000000" version="1.1" id="Capa_1" xmlns="http://www.w3.org/2000/svg" xmlns:xlink="http://www.w3.org/1999/xlink" 
	 viewBox="0 0 65.414 65.414" xml:space="preserve">
<g>
	<path d="M9.5,19.914c0.391,0.391,1.023,0.391,1.414,0l7.793-7.793L23,16.414c0.391,0.391,1.023,0.391,1.414,0l7.293-7.293
		L46,23.414c0.195,0.195,0.451,0.293,0.707,0.293s0.512-0.098,0.707-0.293l11.293-11.293L63,16.414L64.414,15l-5-5
		C59.023,9.609,58.391,9.609,58,10l-4.293,4.293L47.414,8C47.023,7.609,46.391,7.609,46,8l-6.293,6.293L32.414,7
		C32.023,6.609,31.391,6.609,31,7l-2.793,2.793L19.414,1C19.023,0.609,18.391,0.609,18,1L5.707,13.293L3.414,11
		c-0.188-0.187-0.441-0.293-0.707-0.293h-2v2h1.586L9.5,19.914z M46.707,10.121l5.586,5.586l-5.586,5.586l-5.586-5.586
		L46.707,10.121z M18.707,3.121l8.086,8.086l-3.086,3.086L19.414,10C19.023,9.609,18.391,9.609,18,10l-7.793,7.793l-3.086-3.086
		L18.707,3.121z"/>
	<path d="M39.707,8.707c2.206,0,4-1.794,4-4s-1.794-4-4-4s-4,1.794-4,4S37.501,8.707,39.707,8.707z M39.707,2.707
		c1.102,0,2,0.898,2,2s-0.898,2-2,2c-1.103,0-2-0.898-2-2S38.604,2.707,39.707,2.707z"/>
	<path d="M52.707,5.707c0.256,0,0.512-0.098,0.707-0.293l3-3L55,1l-2.293,2.293L50.414,1L49,2.414l3,3
		C52.195,5.609,52.451,5.707,52.707,5.707z"/>
	<path d="M60.707,8.707c0.256,0,0.512-0.098,0.707-0.293l3-3L63,4l-2.293,2.293L58.414,4L57,5.414l3,3
		C60.195,8.609,60.451,8.707,60.707,8.707z"/>
	<rect x="0.707" y="0.707" width="2" height="2"/>
	<rect x="4.707" y="0.707" width="2" height="2"/>
	<rect x="8.707" y="0.707" width="2" height="2"/>
	<rect x="0.707" y="25.707" width="64" height="2"/>
	<path d="M10.707,55.121L12,56.414L13.414,55l-2-2c-0.391-0.391-1.023-0.391-1.414,0l-2.293,2.293v-3.742
		c1.32-0.408,2-1.685,2-3.844c0-0.23-0.017-0.583-0.052-1h0.052c0-1.654,1.346-3,3-3v-2c-1.461,0-2.765,0.641-3.68,1.643
		c-0.452-1.433-1.176-2.643-2.32-2.643s-1.868,1.21-2.32,2.643c-0.915-1.002-2.219-1.643-3.68-1.643v2c1.654,0,3,1.346,3,3h0.052
		c-0.036,0.417-0.052,0.77-0.052,1c0,2.159,0.68,3.437,2,3.844v2.742L3.414,52C3.023,51.609,2.391,51.609,2,52l-2,2l1.414,1.414
		l1.293-1.293l3,3v3.172L3.414,58C3.023,57.609,2.391,57.609,2,58l-2,2l1.414,1.414l1.293-1.293l3,3v1.586h2v-0.586l3-3L12,62.414
		L13.414,61l-2-2c-0.391-0.391-1.023-0.391-1.414,0l-2.293,2.293v-3.172L10.707,55.121z M7.707,47.707c0,2-0.555,2-1,2
		c-0.445,0-1,0-1-2c0-1.935,0.549-4.02,1-4.789C7.158,43.688,7.707,45.772,7.707,47.707z"/>
	<path d="M26.707,55.121L28,56.414L29.414,55l-2-2c-0.391-0.391-1.023-0.391-1.414,0l-2.293,2.293v-3.742
		c1.32-0.408,2-1.685,2-3.844c0-0.23-0.017-0.583-0.052-1h0.052c0-1.654,1.346-3,3-3v-2c-1.461,0-2.765,0.641-3.68,1.643
		c-0.452-1.433-1.176-2.643-2.32-2.643c-1.144,0-1.868,1.21-2.32,2.643c-0.915-1.002-2.219-1.643-3.68-1.643v2c1.654,0,3,1.346,3,3
		h0.052c-0.036,0.417-0.052,0.77-0.052,1c0,2.159,0.68,3.437,2,3.844v2.742L19.414,52c-0.391-0.391-1.023-0.391-1.414,0l-2,2
		l1.414,1.414l1.293-1.293l3,3v3.172L19.414,58c-0.391-0.391-1.023-0.391-1.414,0l-2,2l1.414,1.414l1.293-1.293l3,3v1.586h2v-0.586
		l3-3L28,62.414L29.414,61l-2-2c-0.391-0.391-1.023-0.391-1.414,0l-2.293,2.293v-3.172L26.707,55.121z M23.707,47.707
		c0,2-0.555,2-1,2s-1,0-1-2c0-1.935,0.549-4.02,1-4.789C23.158,43.688,23.707,45.772,23.707,47.707z"/>
	<path d="M44.707,55.121L46,56.414L47.414,55l-2-2c-0.391-0.391-1.023-0.391-1.414,0l-2.293,2.293v-3.742
		c1.32-0.408,2-1.685,2-3.844c0-0.23-0.017-0.583-0.052-1h0.052c0-1.654,1.346-3,3-3v-2c-1.461,0-2.765,0.641-3.68,1.643
		c-0.452-1.433-1.176-2.643-2.32-2.643s-1.868,1.21-2.32,2.643c-0.915-1.002-2.219-1.643-3.68-1.643v2c1.654,0,3,1.346,3,3h0.052
		c-0.036,0.417-0.052,0.77-0.052,1c0,2.159,0.68,3.437,2,3.844v2.742L37.414,52c-0.391-0.391-1.023-0.391-1.414,0l-2,2l1.414,1.414
		l1.293-1.293l3,3v3.172L37.414,58c-0.391-0.391-1.023-0.391-1.414,0l-2,2l1.414,1.414l1.293-1.293l3,3v1.586h2v-0.586l3-3
		L46,62.414L47.414,61l-2-2c-0.391-0.391-1.023-0.391-1.414,0l-2.293,2.293v-3.172L44.707,55.121z M41.707,47.707c0,2-0.555,2-1,2
		s-1,0-1-2c0-1.935,0.549-4.02,1-4.789C41.158,43.688,41.707,45.772,41.707,47.707z"/>
	<path d="M62,59l-2.293,2.293v-3.172l3-3L64,56.414L65.414,55l-2-2c-0.391-0.391-1.023-0.391-1.414,0l-2.293,2.293v-3.742
		c1.32-0.408,2-1.685,2-3.844c0-0.23-0.017-0.583-0.052-1h0.052c0-1.654,1.346-3,3-3v-2c-1.461,0-2.765,0.641-3.68,1.643
		c-0.452-1.433-1.176-2.643-2.32-2.643s-1.868,1.21-2.32,2.643c-0.915-1.002-2.219-1.643-3.68-1.643v2c1.654,0,3,1.346,3,3h0.052
		c-0.036,0.417-0.052,0.77-0.052,1c0,2.159,0.68,3.437,2,3.844v2.742L55.414,52c-0.391-0.391-1.023-0.391-1.414,0l-2,2l1.414,1.414
		l1.293-1.293l3,3v3.172L55.414,58c-0.391-0.391-1.023-0.391-1.414,0l-2,2l1.414,1.414l1.293-1.293l3,3v1.586h2v-0.586l3-3
		L64,62.414L65.414,61l-2-2C63.023,58.609,62.391,58.609,62,59z M59.707,47.707c0,2-0.555,2-1,2s-1,0-1-2
		c0-1.935,0.549-4.02,1-4.789C59.158,43.688,59.707,45.772,59.707,47.707z"/>
	<path d="M34.5,47.914l1.414-1.414l-1.5-1.5c-0.391-0.391-1.023-0.391-1.414,0l-0.293,0.293v-4.742c1.32-0.408,2-1.685,2-3.844
		c0-0.23-0.017-0.583-0.052-1h0.052c0-1.654,1.346-3,3-3v-2c-1.461,0-2.765,0.641-3.68,1.643c-0.452-1.433-1.176-2.643-2.32-2.643
		s-1.868,1.21-2.32,2.643c-0.915-1.002-2.219-1.643-3.68-1.643v2c1.654,0,3,1.346,3,3h0.052c-0.036,0.417-0.052,0.77-0.052,1
		c0,2.159,0.68,3.437,2,3.844v6.742L29.914,46.5L28.5,47.914l2.207,2.207v2.586h2v-4.586l1-1L34.5,47.914z M32.707,36.707
		c0,2-0.555,2-1,2s-1,0-1-2c0-1.935,0.549-4.02,1-4.789C32.158,32.688,32.707,34.772,32.707,36.707z"/>
	<path d="M52.5,47.914l1.414-1.414l-1.5-1.5c-0.391-0.391-1.023-0.391-1.414,0l-0.293,0.293v-4.742c1.32-0.408,2-1.685,2-3.844
		c0-0.23-0.017-0.583-0.052-1h0.052c0-1.654,1.346-3,3-3v-2c-1.461,0-2.765,0.641-3.68,1.643c-0.452-1.433-1.176-2.643-2.32-2.643
		s-1.868,1.21-2.32,2.643c-0.915-1.002-2.219-1.643-3.68-1.643v2c1.654,0,3,1.346,3,3h0.052c-0.036,0.417-0.052,0.77-0.052,1
		c0,2.159,0.68,3.437,2,3.844v6.742L47.914,46.5L46.5,47.914l2.207,2.207v2.586h2v-4.586l1-1L52.5,47.914z M50.707,36.707
		c0,2-0.555,2-1,2s-1,0-1-2c0-1.935,0.549-4.02,1-4.789C50.158,32.688,50.707,34.772,50.707,36.707z"/>
	<path d="M16.707,47.121l0.793,0.793l1.414-1.414l-1.5-1.5c-0.391-0.391-1.023-0.391-1.414,0l-0.293,0.293v-4.742
		c1.32-0.408,2-1.685,2-3.844c0-0.23-0.017-0.583-0.052-1h0.052c0-1.654,1.346-3,3-3v-2c-1.461,0-2.765,0.641-3.68,1.643
		c-0.452-1.433-1.176-2.643-2.32-2.643s-1.868,1.21-2.32,2.643c-0.915-1.002-2.219-1.643-3.68-1.643v2c1.654,0,3,1.346,3,3h0.052
		c-0.036,0.417-0.052,0.77-0.052,1c0,2.159,0.68,3.437,2,3.844v6.742L12.914,46.5L11.5,47.914l2.207,2.207v2.586h2v-4.586
		L16.707,47.121z M15.707,36.707c0,2-0.555,2-1,2s-1,0-1-2c0-1.935,0.549-4.02,1-4.789C15.158,32.688,15.707,34.772,15.707,36.707z"
		/>
	<rect x="2.707" y="29.707" width="2" height="2"/>
	<rect x="2.707" y="33.707" width="2" height="2"/>
	<rect x="2.707" y="37.707" width="2" height="2"/>
	<rect x="60.707" y="29.707" width="2" height="2"/>
	<rect x="60.707" y="33.707" width="2" height="2"/>
	<rect x="39.707" y="32.707" width="2" height="2"/>
	<rect x="39.707" y="36.707" width="2" height="2"/>
	<rect x="21.707" y="35.707" width="2" height="2"/>
	<rect x="60.707" y="37.707" width="2" height="2"/>
</g>
</svg>