<?xml version="1.0" encoding="utf-8"?><!-- Uploaded to: SVG Repo, www.svgrepo.com, Generator: SVG Repo Mixer Tools -->
<svg fill="#000000" width="800px" height="800px" viewBox="0 0 24 24" id="recycle" data-name="Flat Color" xmlns="http://www.w3.org/2000/svg" class="icon flat-color"><path id="primary" d="M21.71,19a2.06,2.06,0,0,1-1.77,1h0L16,20a1,1,0,0,1,0-2h0l3.93.05c.07-.07,0-.12,0-.13l-2.37-4.1-.15.43a1,1,0,1,1-1.88-.67l.88-2.47a1,1,0,0,1,1.2-.63l2.73.73a1,1,0,1,1-.52,1.93l-.4-.1,2.25,3.89A2.09,2.09,0,0,1,21.71,19ZM15.58,8.2A1,1,0,0,0,16,6.83L13.83,3.05a2,2,0,0,0-1.77-1h0a2.09,2.09,0,0,0-1.81,1L8,6.94l-.11-.4a1,1,0,0,0-1.22-.71,1,1,0,0,0-.71,1.23l.73,2.73a1,1,0,0,0,1,.74.55.55,0,0,0,.18,0L10.4,10a1,1,0,1,0-.36-2l-.45.08L12,4.06s0-.06.13,0l2.13,3.79A1,1,0,0,0,15.58,8.2Zm-5.52,8.15a1,1,0,0,0-1.52,1.3l.3.35H4.1S4,18,4,17.89l2.21-3.73a1,1,0,0,0-.35-1.37,1,1,0,0,0-1.37.35L2.29,16.88a2,2,0,0,0,0,2.05A2.08,2.08,0,0,0,4.09,20h4.5l-.3.29a1,1,0,0,0,0,1.42,1,1,0,0,0,1.42,0l2-2a1,1,0,0,0,0-1.36Z" style="fill: rgb(0, 0, 0);"></path></svg>